<svg xmlns="http://www.w3.org/2000/svg" viewBox="0 0 124.57 45.78"><defs><style>.cls-1{fill:#a6a6a6;}.cls-2{fill:#fff;}</style></defs><title>appstore</title><g id="レイヤー_2" data-name="レイヤー 2"><g id="SP"><g id="appstore"><path class="cls-1" d="M113.67,0H9.66L8.61,0a14.78,14.78,0,0,0-2.3.2A7.59,7.59,0,0,0,4.14.94,7,7,0,0,0,2.29,2.29,6.82,6.82,0,0,0,.94,4.14,7.65,7.65,0,0,0,.22,6.32,16,16,0,0,0,0,8.61C0,9,0,9.31,0,9.66V36.12c0,.35,0,.7,0,1.05a15.84,15.84,0,0,0,.2,2.29,7.55,7.55,0,0,0,.72,2.18,6.82,6.82,0,0,0,1.35,1.85,7,7,0,0,0,1.85,1.35,7.59,7.59,0,0,0,2.17.72,14.78,14.78,0,0,0,2.3.2l1.05,0H114.91l1,0a14.55,14.55,0,0,0,2.29-.2,7.72,7.72,0,0,0,2.19-.72,7.42,7.42,0,0,0,3.2-3.2,7.53,7.53,0,0,0,.71-2.18,14.55,14.55,0,0,0,.21-2.29c0-.35,0-.7,0-1.05V9.66c0-.35,0-.7,0-1.05a14.66,14.66,0,0,0-.21-2.29,7.63,7.63,0,0,0-.71-2.18,7.38,7.38,0,0,0-3.2-3.2,7.72,7.72,0,0,0-2.19-.72A14.55,14.55,0,0,0,116,0l-1,0Z"/><path d="M9.66,44.78l-1,0a15.32,15.32,0,0,1-2.14-.18A7.07,7.07,0,0,1,4.59,44a6.42,6.42,0,0,1-2.76-2.76,6.72,6.72,0,0,1-.62-1.9A12.8,12.8,0,0,1,1,37.15c0-.25,0-1,0-1V9.66s0-.79,0-1A12.8,12.8,0,0,1,1.21,6.5a6.06,6.06,0,0,1,.62-1.9A6,6,0,0,1,3,3a6.1,6.1,0,0,1,1.6-1.17,6.44,6.44,0,0,1,1.9-.63A13.94,13.94,0,0,1,8.63,1l1,0H114.9l1,0a13.92,13.92,0,0,1,2.13.18,6.91,6.91,0,0,1,1.91.63,6.37,6.37,0,0,1,2.76,2.77,6.25,6.25,0,0,1,.61,1.89,14.1,14.1,0,0,1,.2,2.16c0,.32,0,.67,0,1s0,.84,0,1.25v24c0,.41,0,.82,0,1.23s0,.71,0,1.06a15,15,0,0,1-.19,2.12,6.68,6.68,0,0,1-.62,1.91,6.49,6.49,0,0,1-1.16,1.59A6.21,6.21,0,0,1,120,44a7.07,7.07,0,0,1-1.9.63,14,14,0,0,1-2.14.18l-1,0H9.66Z"/><path class="cls-2" d="M47.11,19H42.48l-1.12,3.28h-2l4.39-12.16h2l4.39,12.16h-2ZM43,17.43h3.67l-1.81-5.34h0Z"/><path class="cls-2" d="M59.71,17.8c0,2.76-1.48,4.53-3.7,4.53a3,3,0,0,1-2.79-1.56h0v4.4H51.35V13.36h1.77v1.48h0A3.15,3.15,0,0,1,56,13.27C58.22,13.27,59.71,15.05,59.71,17.8Zm-1.87,0c0-1.8-.93-3-2.35-3s-2.32,1.21-2.32,3,.93,3,2.32,3,2.35-1.17,2.35-3Z"/><path class="cls-2" d="M69.47,17.8c0,2.76-1.47,4.53-3.7,4.53A3,3,0,0,1,63,20.77h0v4.4H61.12V13.36h1.76v1.48h0a3.16,3.16,0,0,1,2.83-1.57C68,13.27,69.47,15.05,69.47,17.8Zm-1.87,0c0-1.8-.93-3-2.34-3s-2.33,1.21-2.33,3,.93,3,2.33,3S67.6,19.61,67.6,17.8Z"/><path class="cls-2" d="M75.92,18.84c.14,1.21,1.31,2,2.91,2s2.64-.79,2.64-1.88-.67-1.51-2.24-1.89l-1.58-.38c-2.23-.54-3.27-1.59-3.27-3.28,0-2.1,1.83-3.54,4.42-3.54s4.34,1.44,4.4,3.54H81.36c-.11-1.22-1.11-1.95-2.58-1.95s-2.47.74-2.47,1.82c0,.86.64,1.37,2.21,1.75l1.34.33c2.49.59,3.53,1.6,3.53,3.38,0,2.27-1.81,3.7-4.7,3.7-2.69,0-4.51-1.4-4.63-3.6Z"/><path class="cls-2" d="M87.32,11.27v2.09H89v1.45H87.32V19.7c0,.76.34,1.11,1.08,1.11.2,0,.4,0,.6,0V22.2a4.86,4.86,0,0,1-1,.08c-1.8,0-2.5-.67-2.5-2.39V14.81H84.2V13.36h1.29V11.27Z"/><path class="cls-2" d="M90,17.8c0-2.79,1.65-4.54,4.21-4.54S98.4,15,98.4,17.8s-1.63,4.54-4.21,4.54S90,20.6,90,17.8Zm6.56,0c0-1.91-.88-3-2.35-3s-2.35,1.13-2.35,3,.87,3,2.35,3S96.54,19.72,96.54,17.8Z"/><path class="cls-2" d="M99.9,13.36h1.73v1.51h.05a2.11,2.11,0,0,1,2.13-1.6,2.56,2.56,0,0,1,.62.07V15a2.5,2.5,0,0,0-.82-.11,1.83,1.83,0,0,0-1.9,1.76,1.29,1.29,0,0,0,0,.28v5.26H99.9Z"/><path class="cls-2" d="M112.83,19.63A3.56,3.56,0,0,1,109,22.34c-2.58,0-4.18-1.72-4.18-4.5s1.61-4.58,4.1-4.58,4,1.68,4,4.37v.62h-6.27v.11a2.32,2.32,0,0,0,2.1,2.51h.29a2,2,0,0,0,2-1.25ZM106.67,17h4.44a2.15,2.15,0,0,0-2-2.25h-.17A2.24,2.24,0,0,0,106.67,17Z"/><path class="cls-2" d="M41.7,35.26l.07-.94a3.41,3.41,0,0,0,1.09.18c.34,0,.47,0,.63-.26A5.27,5.27,0,0,0,44,31.59c0-1-.3-1.25-1.06-1.25l-.59,0a15.67,15.67,0,0,1-2,4.72l-.89-.49a12.57,12.57,0,0,0,1.88-4.13,15,15,0,0,0-1.76.29l-.19-.95c.66-.12,1.44-.23,2.18-.29a19.94,19.94,0,0,0,.33-2.17l1.06.12c-.1.66-.22,1.32-.37,2H43c1.37,0,2,.68,2,2.12a6.63,6.63,0,0,1-.63,3.2,1.3,1.3,0,0,1-1.29.69A5.79,5.79,0,0,1,41.7,35.26Zm3.47-5.81.79-.52a6.08,6.08,0,0,1,1.84,4l-1,.16A5,5,0,0,0,45.17,29.45Z"/><path class="cls-2" d="M51.37,35.41l-.21-1a8.39,8.39,0,0,0,.84,0c2.13,0,2.94-.61,2.94-1.5,0-.71-.47-1.12-1.5-1.12a4.57,4.57,0,0,0-2.95,1.44l-.83-.36a6.33,6.33,0,0,1,.91-4l1,.32a4.19,4.19,0,0,0-.82,2.8,5.49,5.49,0,0,1,2.94-1C55.1,31,56,31.75,56,33c0,1.53-1.2,2.46-4.1,2.46Zm-1-7.15.27-1a29.12,29.12,0,0,1,4.23,1l-.26.94a23.66,23.66,0,0,0-4.24-1Z"/><path class="cls-2" d="M59.11,34.67A6.82,6.82,0,0,0,62,32.79a12.39,12.39,0,0,0-2-1.35l.59-.75a13.36,13.36,0,0,1,2,1.3,6.86,6.86,0,0,0,1-2.49H60.94a11.19,11.19,0,0,1-2.34,2.7l-.79-.68a10.1,10.1,0,0,0,3-4.11l1,.25c-.12.3-.24.61-.38.9h2.67l.77.36a8.17,8.17,0,0,1-5.16,6.59Zm4.55-7.52.6-.29A6.24,6.24,0,0,1,65,28.18l-.68.32A5.74,5.74,0,0,0,63.66,27.15ZM65,27l.61-.29a7.66,7.66,0,0,1,.79,1.36l-.68.29A5.91,5.91,0,0,0,65,27Z"/><path class="cls-2" d="M69.72,35.47l-.55-.88A4.5,4.5,0,0,0,73,29.84H68.44V32H67.35V28.93h2.71V27.34h1.08v1.59h2l1,.28C74,32.27,73,34.6,69.72,35.47Z"/><path class="cls-2" d="M76.25,29l.6-.88a13.74,13.74,0,0,1,2.65,1.6l-.69.93A13.31,13.31,0,0,0,76.25,29Zm.2,5.31a8.38,8.38,0,0,0,6.22-4.48l.71.8a9.11,9.11,0,0,1-6.52,4.69Z"/><path class="cls-2" d="M92.21,34.83H85.43V28.42h6.78ZM86.5,29.41v4.43h4.63V29.41Z"/><path class="cls-2" d="M101.91,32H94.29V30.86h7.62Z"/><path class="cls-2" d="M104.5,27.37h1.07v2.76a33.69,33.69,0,0,1,4.12,2.06l-.61,1a25.77,25.77,0,0,0-3.51-1.89v4.16H104.5ZM107,28l.64-.3a7,7,0,0,1,.77,1.46l-.7.31A6.23,6.23,0,0,0,107,28Zm1.23-.47.65-.3a7,7,0,0,1,.81,1.47L109,29a6.9,6.9,0,0,0-.76-1.48Z"/><g id="_Group_2" data-name=" Group 2"><path id="_Path_" data-name=" Path " class="cls-2" d="M28.35,23.23A5.66,5.66,0,0,1,31,18.48,5.78,5.78,0,0,0,26.48,16c-1.93-.2-3.79,1.15-4.77,1.15s-2.5-1.13-4.13-1.09a6.07,6.07,0,0,0-5.12,3.12C10.25,23,11.9,28.65,14,31.75c1.06,1.52,2.3,3.21,3.92,3.15s2.18-1,4.1-1,2.45,1,4.11,1,2.78-1.52,3.8-3.05a12.68,12.68,0,0,0,1.74-3.54A5.47,5.47,0,0,1,28.35,23.23Z"/><path id="_Path_2" data-name=" Path 2" class="cls-2" d="M25.22,14a5.55,5.55,0,0,0,1.28-4,5.73,5.73,0,0,0-3.68,1.9,5.31,5.31,0,0,0-1.3,3.85A4.69,4.69,0,0,0,25.22,14Z"/></g></g></g></g></svg>